<?xml version="1.0" standalone="no"?>
<!DOCTYPE svg PUBLIC "-//W3C//DTD SVG 20010904//EN"
 "http://www.w3.org/TR/2001/REC-SVG-20010904/DTD/svg10.dtd">
<svg version="1.0" xmlns="http://www.w3.org/2000/svg"
 width="319.000000pt" height="319.000000pt" viewBox="0 0 319.000000 319.000000"
 preserveAspectRatio="xMidYMid meet">
<metadata>
Created by potrace 1.14, written by Peter Selinger 2001-2017
</metadata>
<g transform="translate(0.000000,319.000000) scale(0.100000,-0.100000)"
fill="#000000" stroke="none">
<path d="M1120 1440 l0 -841 295 2 c253 1 304 4 362 20 186 51 319 175 363
338 15 58 15 184 0 241 -39 146 -154 251 -307 282 l-54 11 61 29 c80 38 155
115 194 197 29 61 31 74 31 171 0 86 -4 113 -21 151 -48 103 -149 182 -275
216 -68 19 -109 21 -363 22 l-286 2 0 -841z m566 646 c123 -32 184 -114 179
-241 -3 -85 -25 -135 -81 -192 -73 -74 -140 -93 -325 -93 -104 0 -139 3 -140
13 -5 62 -3 514 3 522 11 16 296 9 364 -9z m-25 -710 c123 -16 210 -67 255
-149 26 -47 29 -62 29 -142 -1 -77 -4 -97 -27 -140 -14 -27 -39 -62 -55 -77
-39 -37 -128 -76 -193 -84 -87 -11 -341 -10 -348 1 -3 5 -6 139 -6 298 -1 212
2 291 11 295 15 9 266 7 334 -2z"/>
</g>
</svg>
