<svg width="103" height="103" viewBox="0 0 103 103" fill="none" xmlns="http://www.w3.org/2000/svg">
<path d="M51.5034 0.085144C23.0977 0.085144 0.068367 23.1123 0.068367 51.519C0.068367 79.9253 23.0977 102.953 51.5034 102.953C79.9111 102.953 102.938 79.9253 102.938 51.519C102.938 23.1123 79.9112 0.085144 51.5034 0.085144ZM51.5034 100.381C24.5165 100.381 2.64235 78.505 2.64235 51.519C2.64235 24.5333 24.5165 2.65619 51.5034 2.65619C78.4901 2.65619 100.366 24.5332 100.366 51.519C100.366 78.505 78.4901 100.381 51.5034 100.381Z" fill="url(#paint0_linear)"/>
<path d="M100.735 51.5198C100.735 78.7071 78.6916 100.75 51.5041 100.75C24.3162 100.75 2.27483 78.7071 2.27483 51.5198C2.27483 24.3309 24.3162 2.28955 51.5041 2.28955C78.6916 2.28955 100.735 24.3309 100.735 51.5198Z" fill="#333333"/>
<path d="M100.367 51.5198C100.367 78.5058 78.4908 100.382 51.504 100.382C24.5171 100.382 2.64298 78.5058 2.64298 51.5198C2.64298 24.5341 24.5171 2.65698 51.504 2.65698C78.4908 2.65698 100.367 24.5341 100.367 51.5198Z" fill="url(#paint1_radial)"/>
<path d="M84.2627 51.5198C84.2627 69.6112 69.5961 84.2771 51.5042 84.2771C33.4118 84.2771 18.7452 69.6113 18.7452 51.5198C18.7452 33.4274 33.4118 18.7611 51.5042 18.7611C69.5961 18.7611 84.2627 33.4275 84.2627 51.5198Z" fill="url(#paint2_linear)"/>
<path d="M52.8161 17.8758L56.2191 8.85675V17.8758H58.8035V4.95898H54.9196L51.3867 14.2073H51.4203L47.8877 4.95898H44.0035V17.8758H46.588V8.85675L49.9909 17.8758H52.8161Z" fill="black"/>
<path d="M88.285 23.6678L83.8692 30.1063L90.805 26.6951L92.6862 28.951L81.7703 34.4321L79.5646 31.7617L83.796 25.3819L83.7709 25.3504L76.7327 28.3629L74.5019 25.7104L81.8622 15.9641L83.7438 18.2213L79.135 24.4276L86.2676 21.2463L88.285 23.6678Z" fill="black"/>
<path d="M28.6276 21.2002C27.5874 20.1904 25.9822 19.886 24.4732 20.8214C24.7621 20.0742 24.6448 19.3136 24.4921 18.8918C23.8412 17.7084 23.6131 17.5587 23.0816 17.1097C21.3467 15.6562 19.5216 16.8974 18.2178 18.4512L11.9144 25.9634L21.8238 34.277L28.4706 26.3569C29.9898 24.5468 30.2244 22.7521 28.6276 21.2002ZM15.8088 24.823L19.5951 20.3109C20.0345 19.7887 21.0265 19.8096 21.6627 20.3455C22.3637 20.9335 22.3657 21.7664 21.895 22.3283L18.1508 26.7883L15.8088 24.823ZM26.2543 25.5732L22.3073 30.277L19.8358 28.1998L23.8122 23.4596C24.2621 22.9237 25.2646 22.7678 25.9406 23.3349C26.7022 23.9754 26.7775 24.9496 26.2543 25.5732Z" fill="#333333"/>
<path d="M52.8436 17.3768L56.2463 8.35793V17.3768H58.8311V4.45996H54.9466L51.414 13.7079H51.4475L47.9149 4.45996H44.0304V17.3768H46.6152V8.35793L50.0182 17.3768H52.8436Z" fill="url(#paint3_radial)"/>
<path d="M88.3103 22.8011L83.8965 29.2398L90.8321 25.8275L92.7115 28.0846L81.7972 33.5656L79.5916 30.8942L83.8232 24.5152L83.7983 24.4828L76.7578 27.4965L74.5292 24.8428L81.8896 15.0975L83.7709 17.3538L79.1627 23.56L86.2927 20.38L88.3103 22.8011Z" fill="url(#paint4_radial)"/>
<path d="M28.165 20.946C27.1268 19.9362 25.5195 19.6316 24.0129 20.5662C24.2995 19.8189 24.1824 19.0583 24.0297 18.6385C23.3788 17.4531 23.1528 17.3054 22.6169 16.8556C20.882 15.4011 19.0592 16.643 17.7574 18.1982L11.4517 25.7092L21.3613 34.0229L28.008 26.1016C29.5254 24.2914 29.7617 22.4979 28.165 20.946ZM15.3466 24.5686L19.1324 20.0576C19.57 19.5345 20.5618 19.5554 21.2001 20.09C21.9012 20.6792 21.9034 21.513 21.4303 22.0729L17.6885 26.5337L15.3466 24.5686ZM25.7939 25.3188L21.8468 30.0225L19.371 27.9453L23.3496 23.2041C23.7995 22.6694 24.7999 22.5135 25.4759 23.0807C26.2418 23.7221 26.3172 24.6942 25.7939 25.3188Z" fill="url(#paint5_radial)"/>
<path d="M19.8357 51.5202C19.8357 34.0297 34.0145 19.8508 51.5041 19.8508C68.9956 19.8508 83.1725 34.0297 83.1725 51.5202C83.1725 69.01 68.9956 83.1885 51.5041 83.1885C34.0144 83.1885 19.8357 69.01 19.8357 51.5202Z" fill="url(#paint6_radial)"/>
<path d="M20.746 51.5201C20.746 34.5328 34.5168 20.761 51.5042 20.761C68.4915 20.761 82.2641 34.5327 82.2641 51.5201C82.2641 68.5076 68.4914 82.2794 51.5042 82.2794C34.5169 82.2794 20.746 68.5076 20.746 51.5201Z" fill="url(#paint7_radial)"/>
<path d="M20.6978 51.5202H51.5041V20.7141C34.4894 20.7141 20.6978 34.5057 20.6978 51.5202Z" fill="url(#paint8_radial)"/>
<path d="M51.5041 51.5202V82.3267C68.5185 82.3267 82.3103 68.5326 82.3103 51.5202H51.5041Z" fill="url(#paint9_radial)"/>
<path d="M82.5654 50.9728H52.0502V20.4576H50.9577V50.9728H20.4425V52.0654H50.9577V82.5816H52.0502V52.0654H82.5654V50.9728Z" fill="url(#paint10_radial)"/>
<path d="M52.0502 21.3219C68.301 21.6109 81.4144 34.7233 81.7053 50.9728H82.2492C81.9587 34.4219 68.6022 21.0636 52.0501 20.7747V21.3219H52.0502Z" fill="url(#paint11_linear)"/>
<path d="M21.2504 50.9688C21.5391 34.6971 34.6714 21.5659 50.9432 21.2759V20.7297C34.3682 21.0195 20.995 34.3956 20.7041 50.9687H21.2504V50.9688Z" fill="#C2D7E8"/>
<path d="M50.9577 81.7181C34.7071 81.4295 21.5937 68.316 21.3048 52.0654H20.7587C21.0495 68.6173 34.4059 81.976 50.9578 82.2646V81.7181H50.9577Z" fill="url(#paint12_linear)"/>
<path d="M81.7054 52.0654C81.4145 68.316 68.301 81.4295 52.0503 81.7181V82.2646C68.6023 81.976 81.9606 68.6174 82.2494 52.0654H81.7054Z" fill="#12404F"/>
<path d="M50.374 20.7298V50.3734H20.7313V50.9583H50.374H50.9577V50.3734V20.7298H50.374Z" fill="url(#paint13_linear)"/>
<path d="M50.3238 81.9781V52.6912H20.9764V52.1136H50.3238H50.9013V52.6912V81.9781H50.3238Z" fill="url(#paint14_linear)"/>
<path d="M52.676 81.9781V52.6912H81.9627V52.1136H52.676H52.1004V52.6912V81.9781H52.676Z" fill="url(#paint15_linear)"/>
<path d="M52.676 20.9915V50.2782H81.9627V50.8548H52.676H52.1004V50.2782V20.9915H52.676Z" fill="url(#paint16_linear)"/>
<defs>
<linearGradient id="paint0_linear" x1="-7.46096" y1="-5.46046" x2="101.673" y2="99.999" gradientUnits="userSpaceOnUse">
<stop stop-color="#DFF4FF"/>
<stop offset="0.0984" stop-color="#D6EAF5"/>
<stop offset="0.2678" stop-color="#BFD0D9"/>
<stop offset="0.4879" stop-color="#98A5AC"/>
<stop offset="0.7469" stop-color="#646B6E"/>
<stop offset="1" stop-color="#2B2B2B"/>
</linearGradient>
<radialGradient id="paint1_radial" cx="0" cy="0" r="1" gradientUnits="userSpaceOnUse" gradientTransform="translate(-0.572082 3.48768) scale(73.075)">
<stop stop-color="white"/>
<stop offset="0.3064" stop-color="#A8A8A8"/>
<stop offset="0.6461" stop-color="#4F4F4F"/>
<stop offset="0.8853" stop-color="#161616"/>
<stop offset="1"/>
</radialGradient>
<linearGradient id="paint2_linear" x1="89.0584" y1="87.8093" x2="19.5514" y2="20.6426" gradientUnits="userSpaceOnUse">
<stop stop-color="#DFF4FF"/>
<stop offset="0.0855" stop-color="#D6EAF5"/>
<stop offset="0.2327" stop-color="#BED0D9"/>
<stop offset="0.4239" stop-color="#96A4AC"/>
<stop offset="0.6516" stop-color="#5F686D"/>
<stop offset="0.9075" stop-color="#1A1D1E"/>
<stop offset="1"/>
</linearGradient>
<radialGradient id="paint3_radial" cx="0" cy="0" r="1" gradientUnits="userSpaceOnUse" gradientTransform="translate(-13.6961 -3.95407) scale(175.588)">
<stop stop-color="white"/>
<stop offset="0.3102" stop-color="#FDFDFD"/>
<stop offset="0.4505" stop-color="#F6F6F6"/>
<stop offset="0.5567" stop-color="#E9E9E9"/>
<stop offset="0.6456" stop-color="#D7D7D7"/>
<stop offset="0.7238" stop-color="#BFBFBF"/>
<stop offset="0.7944" stop-color="#A2A2A2"/>
<stop offset="0.8593" stop-color="#808080"/>
<stop offset="0.9199" stop-color="#575757"/>
<stop offset="0.9746" stop-color="#2B2B2B"/>
<stop offset="1" stop-color="#141414"/>
</radialGradient>
<radialGradient id="paint4_radial" cx="0" cy="0" r="1" gradientUnits="userSpaceOnUse" gradientTransform="translate(-13.7039 -3.95407) scale(175.603)">
<stop stop-color="white"/>
<stop offset="0.3102" stop-color="#FDFDFD"/>
<stop offset="0.4505" stop-color="#F6F6F6"/>
<stop offset="0.5567" stop-color="#E9E9E9"/>
<stop offset="0.6456" stop-color="#D7D7D7"/>
<stop offset="0.7238" stop-color="#BFBFBF"/>
<stop offset="0.7944" stop-color="#A2A2A2"/>
<stop offset="0.8593" stop-color="#808080"/>
<stop offset="0.9199" stop-color="#575757"/>
<stop offset="0.9746" stop-color="#2B2B2B"/>
<stop offset="1" stop-color="#141414"/>
</radialGradient>
<radialGradient id="paint5_radial" cx="0" cy="0" r="1" gradientUnits="userSpaceOnUse" gradientTransform="translate(-13.7135 -4.0056) scale(175.738 175.738)">
<stop stop-color="white"/>
<stop offset="0.3102" stop-color="#FDFDFD"/>
<stop offset="0.4505" stop-color="#F6F6F6"/>
<stop offset="0.5567" stop-color="#E9E9E9"/>
<stop offset="0.6456" stop-color="#D7D7D7"/>
<stop offset="0.7238" stop-color="#BFBFBF"/>
<stop offset="0.7944" stop-color="#A2A2A2"/>
<stop offset="0.8593" stop-color="#808080"/>
<stop offset="0.9199" stop-color="#575757"/>
<stop offset="0.9746" stop-color="#2B2B2B"/>
<stop offset="1" stop-color="#141414"/>
</radialGradient>
<radialGradient id="paint6_radial" cx="0" cy="0" r="1" gradientUnits="userSpaceOnUse" gradientTransform="translate(17.7518 20.3891) scale(47.3615)">
<stop stop-color="#E6E6E6"/>
<stop offset="0.1045" stop-color="#D6D6D6"/>
<stop offset="0.3074" stop-color="#ADADAD"/>
<stop offset="0.5884" stop-color="#6C6C6C"/>
<stop offset="0.9335" stop-color="#121212"/>
<stop offset="1"/>
</radialGradient>
<radialGradient id="paint7_radial" cx="0" cy="0" r="1" gradientUnits="userSpaceOnUse" gradientTransform="translate(30.7058 26.7591) scale(68.8772)">
<stop stop-color="white"/>
<stop offset="0.3435" stop-color="#FDFDFD"/>
<stop offset="0.4814" stop-color="#F6F6F6"/>
<stop offset="0.5824" stop-color="#EAEAEA"/>
<stop offset="0.6654" stop-color="#D8D8D8"/>
<stop offset="0.7373" stop-color="#C2C2C2"/>
<stop offset="0.8016" stop-color="#A6A6A6"/>
<stop offset="0.8602" stop-color="#848484"/>
<stop offset="0.9126" stop-color="#5F5F5F"/>
<stop offset="0.9494" stop-color="#404040"/>
<stop offset="0.9566" stop-color="#404040"/>
<stop offset="1"/>
</radialGradient>
<radialGradient id="paint8_radial" cx="0" cy="0" r="1" gradientUnits="userSpaceOnUse" gradientTransform="translate(10.4825 0.650123) scale(121.982)">
<stop offset="0.1685" stop-color="white"/>
<stop offset="0.1957" stop-color="#E0EFF7"/>
<stop offset="0.2406" stop-color="#B2D9EC"/>
<stop offset="0.2872" stop-color="#8BC5E2"/>
<stop offset="0.335" stop-color="#6BB5DA"/>
<stop offset="0.3844" stop-color="#52A9D4"/>
<stop offset="0.4359" stop-color="#41A0CF"/>
<stop offset="0.4911" stop-color="#369BCD"/>
<stop offset="0.5562" stop-color="#3399CC"/>
<stop offset="0.606" stop-color="#3396C8"/>
<stop offset="0.6553" stop-color="#328EBC"/>
<stop offset="0.7045" stop-color="#3180A8"/>
<stop offset="0.7536" stop-color="#2F6D8C"/>
<stop offset="0.8027" stop-color="#2D5468"/>
<stop offset="0.8512" stop-color="#2A373D"/>
<stop offset="0.8708" stop-color="#292929"/>
</radialGradient>
<radialGradient id="paint9_radial" cx="0" cy="0" r="1" gradientUnits="userSpaceOnUse" gradientTransform="translate(10.4825 0.649278) scale(121.98)">
<stop offset="0.1685" stop-color="white"/>
<stop offset="0.1957" stop-color="#E0EFF7"/>
<stop offset="0.2406" stop-color="#B2D9EC"/>
<stop offset="0.2872" stop-color="#8BC5E2"/>
<stop offset="0.335" stop-color="#6BB5DA"/>
<stop offset="0.3844" stop-color="#52A9D4"/>
<stop offset="0.4359" stop-color="#41A0CF"/>
<stop offset="0.4911" stop-color="#369BCD"/>
<stop offset="0.5562" stop-color="#3399CC"/>
<stop offset="0.606" stop-color="#3396C8"/>
<stop offset="0.6553" stop-color="#328EBC"/>
<stop offset="0.7045" stop-color="#3180A8"/>
<stop offset="0.7536" stop-color="#2F6D8C"/>
<stop offset="0.8027" stop-color="#2D5468"/>
<stop offset="0.8512" stop-color="#2A373D"/>
<stop offset="0.8708" stop-color="#292929"/>
</radialGradient>
<radialGradient id="paint10_radial" cx="0" cy="0" r="1" gradientUnits="userSpaceOnUse" gradientTransform="translate(18.3987 20.9857) scale(46.4538)">
<stop stop-color="#E6E6E6"/>
<stop offset="0.1045" stop-color="#D6D6D6"/>
<stop offset="0.3074" stop-color="#ADADAD"/>
<stop offset="0.5884" stop-color="#6C6C6C"/>
<stop offset="0.9335" stop-color="#121212"/>
<stop offset="1"/>
</radialGradient>
<linearGradient id="paint11_linear" x1="45.4129" y1="9.38686" x2="90.7144" y2="53.1631" gradientUnits="userSpaceOnUse">
<stop stop-color="#F0F4FF"/>
<stop offset="0.1086" stop-color="#EBEFF9"/>
<stop offset="0.2475" stop-color="#DCE0EA"/>
<stop offset="0.4028" stop-color="#C4C7CF"/>
<stop offset="0.5701" stop-color="#A2A4AB"/>
<stop offset="0.7469" stop-color="#76777C"/>
<stop offset="0.9291" stop-color="#414243"/>
<stop offset="1" stop-color="#2B2B2B"/>
</linearGradient>
<linearGradient id="paint12_linear" x1="8.64264" y1="46.3467" x2="53.945" y2="90.1237" gradientUnits="userSpaceOnUse">
<stop stop-color="#F0F4FF"/>
<stop offset="0.1086" stop-color="#EBEFF9"/>
<stop offset="0.2475" stop-color="#DCE0EA"/>
<stop offset="0.4028" stop-color="#C4C7CF"/>
<stop offset="0.5701" stop-color="#A2A4AB"/>
<stop offset="0.7469" stop-color="#76777C"/>
<stop offset="0.9291" stop-color="#414243"/>
<stop offset="1" stop-color="#2B2B2B"/>
</linearGradient>
<linearGradient id="paint13_linear" x1="30.5589" y1="30.7365" x2="54.0499" y2="53.4365" gradientUnits="userSpaceOnUse">
<stop stop-color="#C2D7E8"/>
<stop offset="0.1337" stop-color="#BACFE1"/>
<stop offset="0.3425" stop-color="#A4BACD"/>
<stop offset="0.6001" stop-color="#8098AC"/>
<stop offset="0.894" stop-color="#4E697F"/>
<stop offset="1" stop-color="#3A566D"/>
</linearGradient>
<linearGradient id="paint14_linear" x1="18.7941" y1="36.2988" x2="63.6406" y2="79.6352" gradientUnits="userSpaceOnUse">
<stop stop-color="#F0F4FF"/>
<stop offset="0.0973" stop-color="#E8EBF6"/>
<stop offset="0.2568" stop-color="#D1D4DD"/>
<stop offset="0.4587" stop-color="#ABAEB5"/>
<stop offset="0.6951" stop-color="#78797D"/>
<stop offset="0.9578" stop-color="#363637"/>
<stop offset="1" stop-color="#2B2B2B"/>
</linearGradient>
<linearGradient id="paint15_linear" x1="51.8487" y1="52.3742" x2="67.5796" y2="67.5754" gradientUnits="userSpaceOnUse">
<stop stop-color="#D9DEF0"/>
<stop offset="0.1229" stop-color="#D4DAEC"/>
<stop offset="0.2629" stop-color="#C7CFE2"/>
<stop offset="0.4114" stop-color="#B0BCD1"/>
<stop offset="0.5657" stop-color="#90A1B8"/>
<stop offset="0.7246" stop-color="#677F99"/>
<stop offset="0.8849" stop-color="#355674"/>
<stop offset="0.9719" stop-color="#173D5D"/>
</linearGradient>
<linearGradient id="paint16_linear" x1="35.7565" y1="19.8514" x2="80.5543" y2="63.1409" gradientUnits="userSpaceOnUse">
<stop stop-color="#F0F4FF"/>
<stop offset="0.1086" stop-color="#EBEFF9"/>
<stop offset="0.2475" stop-color="#DCE0EA"/>
<stop offset="0.4028" stop-color="#C4C7CF"/>
<stop offset="0.5701" stop-color="#A2A4AB"/>
<stop offset="0.7469" stop-color="#76777C"/>
<stop offset="0.9291" stop-color="#414243"/>
<stop offset="1" stop-color="#2B2B2B"/>
</linearGradient>
</defs>
</svg>
