<svg xmlns="http://www.w3.org/2000/svg" width="445" height="70" viewBox="0 0 445 70">
  <g fill="#222C63" fill-rule="evenodd">
    <path d="M90.727,49.626 L70.475,49.626 C67.113148,49.624344 64.3885516,46.8988524 64.388,43.537 C64.3902049,40.1758327 67.1138336,37.4513091 70.475,37.448 L90.726,37.448 L90.726,49.626 L90.727,49.626 Z M84.637,11.646 L59.957,11.646 L59.957,20.543 L84.637,20.545 C87.927,20.545 90.727,23.202 90.727,26.556 L90.727,28.639 L70.475,28.639 C62.255,28.639 55.577,35.322 55.577,43.537 C55.577,51.755 62.255,58.437 70.475,58.437 L99.535,58.431 L99.535,26.556 C99.535,18.341 92.894,11.646 84.638,11.646 L84.637,11.646 Z M159.827,11.641 C168.043,11.641 174.704,18.341 174.704,26.556 L174.704,58.446 L165.894,58.446 L165.894,26.62 C165.890694,23.2588991 163.1671,20.5348585 159.806,20.531 L144.452,20.538 L144.452,58.448 L135.643,58.448 L135.643,20.532 L121.216,20.529 C117.854119,20.5323084 115.129756,23.2571186 115.127,26.619 L115.127,58.445 L106.319,58.445 L106.319,26.555 C106.319,18.34 113.02,11.64 121.236,11.64 L159.827,11.64 L159.827,11.641 Z M193.558,11.635 C186.968,11.635 181.608,16.996 181.608,23.585 C181.608,28.499 184.568,32.855 189.148,34.681 C212.606,42.041 212.615,42.029 212.624,42.031 C214.191897,42.5792704 215.240853,44.060008 215.238,45.721 C215.238557,47.8751047 213.495099,49.6230367 211.341,49.628 L181.488,49.628 L181.488,58.442 L211.341,58.442 C218.354,58.442 224.059,52.737 224.059,45.722 C224.059,40.495 220.917,35.862 216.051,33.916 L206.444,30.876 L192.554,26.466 C191.32714,26.0413655 190.505517,24.8842634 190.509,23.586 C190.511206,21.9034842 191.875483,20.5405502 193.558,20.54 L219.358,20.54 L219.358,11.635 L193.558,11.635 Z M302.32,46.629 L302.323,34.407 L302.317,26.56 C302.317,18.348 309.003,11.663 317.213,11.663 L332.525,11.663 C340.741,11.663 347.425,18.347 347.425,26.559 L347.418,35.635 L347.422,58.451 L338.612,58.451 L338.617,26.632 C338.617,23.276 335.883,20.545 332.525,20.545 L317.213,20.545 C313.852223,20.5477563 311.128308,23.2712237 311.125,26.632 L311.125,58.446 L302.317,58.446 L302.32,46.629 M378.614,2.73 L378.614,11.645 L392.565,11.649 L392.565,20.524 L378.615,20.524 L378.615,43.52 C378.617202,46.88055 381.339453,49.6050377 384.7,49.61 L397,49.61 L397,58.422 L384.7,58.422 C376.485,58.422 369.801,51.734 369.801,43.52 L369.812,34.444 L369.806,2.73 L378.614,2.73 L378.614,2.73 Z M354.221,58.45 L363.025,58.45 L363.025,11.633 L354.221,11.633 L354.221,58.45 Z M435.795,29.825 L410.957,29.825 L410.957,26.668 C410.961408,23.3087847 413.683784,20.5868564 417.043,20.583 L429.703,20.583 C433.062,20.583 435.795,23.312 435.795,26.668 L435.795,29.825 L435.795,29.825 Z M444.605,26.668 C444.605,18.456 437.92,11.772 429.704,11.772 L417.043,11.772 C408.827,11.772 402.145,18.456 402.145,26.668 L402.161,43.551 C402.161,51.765 408.845,58.445 417.057,58.445 L440.185,58.445 L440.185,49.609 L417.057,49.609 C413.703,49.609 410.967,46.879 410.967,43.523 L410.961,38.635 L444.603,38.625 L444.605,26.668 L444.605,26.668 Z M35.64,49.62 C38.868,49.62 41.494,46.99 41.494,43.753 C41.4957148,41.2501465 39.9094809,39.021789 37.544,38.204 L8.582,29.12 C3.397,27.05 0.006,22.06 0.006,16.428 C0.006,8.875 6.15,2.732 13.701,2.732 L45.855,2.732 L45.855,11.632 L13.701,11.632 C11.136,11.632 8.894,13.78 8.894,16.428 C8.88885536,18.4777097 10.187935,20.3037366 12.126,20.971 L26.874,25.653 L41.106,30.177 C46.6631737,32.3882658 50.3036636,37.7720666 50.286064,43.753 C50.286064,51.831 43.716,58.434 35.639,58.434 L0,58.434 L0,49.62 L35.64,49.62 Z M265.563,51.962 C260.055,57.831 252.255,60.28 244.834,59.239 C245.878051,61.1761963 247.228862,62.9315749 248.834,64.437 C257.094,72.187 270.121,71.774 277.872,63.519 C285.626,55.257 285.214,42.232 276.954,34.477 C275.349316,32.9720364 273.512822,31.7352136 271.515,30.814 C273.021,38.154 271.072,46.095 265.563,51.962"/>
    <path d="M279.456,31.919 C285.32,37.428 287.769,45.228 286.729,52.649 C288.666113,51.6030781 290.421967,50.251746 291.929,48.647 C299.681,40.389 299.268,27.362 291.009,19.61 C282.749,11.857 269.722,12.27 261.969,20.528 C260.463906,22.1329542 259.227075,23.9697993 258.306,25.968 C265.647,24.46 273.586,26.413 279.456,31.918"/>
    <path d="M259.41,18.03 C264.917,12.162 272.72,9.712 280.14,10.754 C279.095672,8.81585359 277.744153,7.05975723 276.138,5.554 C267.879,-2.197 254.853,-1.786 247.098,6.474 C239.348,14.734 239.759,27.762 248.019,35.514 C249.623533,37.0198861 251.460456,38.2571083 253.459,39.178 C251.951,31.838 253.904,23.897 259.409,18.03"/>
    <path d="M245.522,38.072 C239.655,32.564 237.205,24.765 238.244,17.344 C236.307254,18.3878319 234.552501,19.7386811 233.048,21.344 C225.297,29.604 225.707,42.631 233.968,50.384 C242.226,58.134 255.254,57.724 263.005,49.464 C264.511831,47.860011 265.749462,46.0229824 266.67,44.024 C259.33,45.531 251.387,43.581 245.521,38.072"/>
  </g>
</svg>
