<svg xmlns="http://www.w3.org/2000/svg" viewBox="0 0 2279.41 1530.98"><defs><style>.cls-1,.cls-2{fill:#2a9969;fill-rule:evenodd;}.cls-2{stroke:#2a9969;stroke-miterlimit:33.89;stroke-width:21.79px;}</style></defs><g id="Layer_2" data-name="Layer 2"><g id="Layer_1-2" data-name="Layer 1"><path class="cls-1" d="M874.33,1034.81h157.22c-32.37,83.55-106.64,84.45-116.21,84.45-63.78,0-125.31-55.06-125.31-129.9,0-71.13,54.66-131.72,124.84-131.72,49.68,0,77.94,30.75,92.06,46.38h57.42c-32.8-61-93.87-91.8-151.29-91.8-97.07,0-172.25,79.41-172.25,177.14,0,95,74.27,175.35,172.7,175.35,82,0,172.25-61.51,174.08-175.35H874.33Z"/><path class="cls-1" d="M734.89,927.42c0-28.47-9.57-59.65-31-80.33-17.76-17-42.38-28.46-89.77-28.46H509.78v339.63H559V1000.85h.9l111.19,157.41h61.52L638.28,1031.6C660.16,1031.6,734.89,1017.37,734.89,927.42ZM592.72,993.94H559V864.06H611c55.59,0,74.74,34.89,74.74,63.36C685.69,993,612.77,993.94,592.72,993.94Z"/><polygon class="cls-1" points="1104.45 1158.27 1286.29 1158.27 1286.29 1112.82 1153.67 1112.82 1153.67 1009.57 1286.29 1009.57 1286.29 964.13 1153.67 964.13 1153.67 864.07 1286.29 864.07 1286.29 818.63 1104.45 818.63 1104.45 1158.27"/><path class="cls-1" d="M1845.69,818.07h-53.26v343h53.32V1057.55l224.24.23h0L2203.32,1161h76.09Zm.06,191.57V884.17L2007,1009Z"/><polygon class="cls-1" points="1537.37 1077.04 1536.46 1077.04 1372.41 818.63 1318.64 818.63 1318.64 1158.27 1367.86 1158.27 1367.86 895.73 1368.76 895.73 1535.54 1158.27 1535.54 1158.27 1586.59 1158.27 1586.59 818.63 1537.37 818.63 1537.37 1077.04"/><polygon class="cls-1" points="1596.59 864.07 1661.32 864.07 1661.32 1158.27 1710.54 1158.27 1710.54 864.07 1775.24 864.07 1775.24 818.63 1596.59 818.63 1596.59 864.07"/><path class="cls-1" d="M433.72,818.07,0,1161H76.11l133.33-103.25h0l224.2-.23V1161H487v-343Zm-.08,191.57L272.43,1009,433.64,884.17Z"/><path class="cls-1" d="M918.18,369.38V291.09l128.17-115.32h107.7Zm275.39,248.53H1050.45l-49-38.15,397-335.86,52.76,44.46V399.59L1193.57,617.91Zm257.69-196.35V516.3L1325.83,617.91H1222.22l229-196.35ZM1212.67,0V130.45l-19.1,15.1V16.47Zm13.63,144.17h260.41L1610.78,38.44h-253.6L1226.3,144.17ZM918.18,403.7l264.49-227.93h135L1380,228.33,984.39,566.48l-66.21-51.57V403.7Z"/><path class="cls-2" d="M2279.41,1520.08h0Zm0-290.17h0Z"/><path class="cls-1" d="M105.91,1433.31H92.54V1416h-.4c-4,8.36-14.8,20-35.45,20-21.89,0-33.23-10.61-38.08-16.71-7.91-9.81-9.73-24.09-9.73-35.93V1321.7H23.07v61.42c0,14.09,3,23.26,7.9,29.39,7.71,8.77,18,10.61,25.73,10.61,7.9,0,16.42-1.85,23.51-9,6.48-6.51,11.54-13.88,11.54-33.46v-59h14.19v111.61Zm5.67-111.6h14.8l34.85,93.47h.4l25.32-80h12.37l25.51,80h.42l35.23-93.47h14.6l-42.34,111.6h-16l-23.5-74.26h-.42l-23.1,74.26h-16l-42.14-111.6Zm326.59,111.6H424v-19.58h-.4C411.43,1432.1,392,1436,380.43,1436c-34.85,0-59.56-26.73-59.56-58.76,0-29.79,23.31-58.37,59.56-58.37,11.94,0,31.4,3.91,43.16,22.47h.4V1321.7h14.18Zm-57.74-10.18c23.9,0,44.37-19.37,44.37-45.49,0-24.5-18.85-45.93-44.37-45.93-24.32,0-45.38,17.76-45.38,46.11C335.05,1402.72,353.28,1423.13,380.43,1423.13Zm76.73-101.42h14.19v19.61h.4c12.76-18.37,31.2-22.46,43.15-22.46,36.26,0,59.57,28.57,59.57,58.36,0,32-24.72,58.77-59.57,58.77-11.56,0-30.79-4.08-43.15-22.25h-.4v58.77H457.16Zm57.75,10c-25.52,0-44.35,21.43-44.35,45.93,0,26.12,20.46,45.49,44.35,45.49,27.16,0,45.38-20.41,45.38-45.31,0-28.36-21.07-46.11-45.38-46.11Zm69.9-10H599v19.61h.42c12.75-18.37,31.19-22.46,43.14-22.46,36.26,0,59.57,28.57,59.57,58.36,0,32-24.73,58.77-59.57,58.77-11.55,0-30.8-4.08-43.14-22.25H599v58.77H584.81Zm57.73,10c-25.53,0-44.37,21.43-44.37,45.93,0,26.12,20.46,45.49,44.37,45.49,27.15,0,45.38-20.41,45.38-45.31C687.92,1349.46,666.85,1331.71,642.54,1331.71Zm79.21,51c1,21.84,21.27,40.4,43,40.4,20.26-.4,34.64-12.46,39.71-26.31h15c-7.71,22.24-29,39.17-54.5,39.17a58.08,58.08,0,0,1-57.74-58.34,58.81,58.81,0,0,1,57.53-58.79,57.62,57.62,0,0,1,49.44,28.57c7.5,12,9.12,24.5,8.51,35.32H721.75v0Zm86.53-12.86c-4.47-26.32-25.74-38.15-43.36-38.15a43.82,43.82,0,0,0-43.17,38.15Zm25.52-87.55H848v151H833.8Zm42.94,52.26H853.45v-12.87h23.29v-39.39h14.19v39.39h26.54v12.87H890.93v98.73H876.74Zm59.75,91c0,13.48,0,27.16-12.15,38-9.73,8.56-18.23,8.76-24.51,9v-14.09c18.64-.61,22.49-13.65,22.49-32.85V1321.71h14.17v103.86Zm-14.16-143.25h14.18v25.73H922.33Zm39.3,100.41c1,21.84,21.28,40.4,43,40.4,20.25-.4,34.64-12.46,39.71-26.31h15c-7.69,22.24-29,39.17-54.5,39.17A58.09,58.09,0,0,1,947,1377.65a58.83,58.83,0,0,1,57.55-58.79,57.66,57.66,0,0,1,49.44,28.57c7.49,12,9.11,24.5,8.5,35.32H961.63v0Zm86.51-12.86c-4.45-26.32-25.73-38.15-43.36-38.15a43.79,43.79,0,0,0-43.15,38.15Zm59.36-48.16h15.2l39.08,93.88,39.73-93.88h15.18l-46.8,111.6h-15.58Zm160.5-2.87c32.83,0,58.16,28,58.16,58.6,0,30.4-24.93,58.55-58.16,58.55-32.4,0-57.73-27.56-57.73-57.73,0-35.32,28.55-59.42,57.73-59.42Zm.2,104.29c21.47,0,43.77-17.14,43.77-46.32,0-29.39-24.72-45.1-43.77-45.1-20.26,0-43.78,16.74-43.78,46.3C1224.42,1404,1245.3,1423.13,1268.2,1423.13Zm122-104.29c32.8,0,58.13,28,58.13,58.6,0,30.4-24.9,58.55-58.13,58.55-32.42,0-57.75-27.56-57.75-57.73C1332.41,1342.94,1361,1318.84,1390.16,1318.84Zm.21,104.29c21.48,0,43.75-17.14,43.75-46.32,0-29.39-24.72-45.1-43.75-45.1-20.26,0-43.77,16.74-43.77,46.3C1346.6,1404,1367.47,1423.13,1390.37,1423.13Zm68.88-101.42h14.19v16.11h.38c6.72-15.71,19.27-18.16,31.23-19v15.1c-10,.83-18.44,4.51-23.92,11a36.61,36.61,0,0,0-7.7,23.08v65.27h-14.19v-111.6Zm208.08,111.6h-14.19v-19.58h-.4c-11.75,17.76-31.42,22.24-43.17,22.24-34.83,0-59.55-26.73-59.55-58.76,0-29.79,23.3-58.37,59.55-58.37,12.17,0,31.21,4.52,43.17,22h.4v-58.57h14.19Zm-57.77-10.18c23.92,0,44.38-19.37,44.38-45.49,0-24.5-18.84-45.93-44.38-45.93-24.29,0-45.39,17.76-45.39,46.11C1564.17,1402.72,1582.44,1423.13,1609.56,1423.13Zm83.1-40.4c1,21.84,21.26,40.4,42.94,40.4,20.26-.4,34.63-12.46,39.7-26.31h15c-7.67,22.24-28.94,39.17-54.48,39.17a58.1,58.1,0,0,1-57.76-58.34,58.83,58.83,0,0,1,57.56-58.79,57.63,57.63,0,0,1,49.43,28.57c7.5,12,9.12,24.5,8.51,35.32H1692.66v0Zm86.48-12.86c-4.44-26.32-25.71-38.15-43.34-38.15a43.76,43.76,0,0,0-43.14,38.15Zm183.17,63.44H1948.1v-19.58h-.4c-11.73,17.76-31.39,22.24-43.14,22.24-34.84,0-59.56-26.73-59.56-58.76,0-29.79,23.31-58.37,59.56-58.37,12.16,0,31.2,4.52,43.14,22h.4v-58.57h14.21Zm-57.75-10.18c23.89,0,44.35-19.37,44.35-45.49,0-24.5-18.84-45.93-44.35-45.93-24.32,0-45.4,17.76-45.4,46.11C1859.16,1402.72,1877.43,1423.13,1904.56,1423.13Zm127-104.29c32.8,0,58.13,28,58.13,58.6,0,30.4-24.93,58.55-58.13,58.55-32.43,0-57.76-27.56-57.76-57.73C1973.83,1342.94,2002.41,1318.84,2031.6,1318.84Zm.19,104.29c21.48,0,43.75-17.14,43.75-46.32,0-29.39-24.7-45.1-43.75-45.1-20.26,0-43.77,16.74-43.77,46.3C1988,1404,2008.9,1423.13,2031.79,1423.13Zm68.88-101.42h14.17v16.11h.42c6.7-15.71,19.23-18.16,31.21-19v15.1c-10,.83-18.44,4.51-23.92,11a36.84,36.84,0,0,0-7.73,23.08v65.27h-14.16v-111.6Zm60.34,78.54c.4,21.24,14.77,22.88,19.83,22.88,13.37,0,20.67-8,20.67-20,0-15.3-13.77-18.77-22.08-22.24-11.35-3.88-29.39-10-29.39-31,0-15.71,11.16-31,31.63-31,16.59,0,30.38,12.87,30.17,30.43h-14.19c-1-13.69-10.34-17.56-16.62-17.56-11.34,0-16.79,9.17-16.79,16.74,0,11.83,11.72,15.91,19.83,18.55,13,4.3,31.62,11.45,31.62,34.5.21,19.18-11.35,34.47-34.86,34.47-15.41,0-34.66-10.61-34-35.72H2161Zm75.13-65.67h-23.28v-12.87h23.28v-39.39h14.22v39.39h26.52v12.87h-26.52v98.73h-14.22Z"/></g></g></svg>