<svg width="282" height="53" viewBox="0 0 282 53" fill="none" xmlns="http://www.w3.org/2000/svg">
<path d="M67.4327 33.6957C64.8215 33.6182 62.3433 32.53 60.5237 30.6618C58.7042 28.7936 57.6865 26.2925 57.6865 23.6889C57.6865 21.0854 58.7042 18.5842 60.5237 16.716C62.3433 14.8479 64.8215 13.7596 67.4327 13.6821H91.5266C92.0598 13.6821 92.5713 13.8933 92.9484 14.2691C93.3255 14.6449 93.5373 15.1546 93.5373 15.6861C93.5373 16.2176 93.3255 16.7274 92.9484 17.1032C92.5713 17.479 92.0598 17.6902 91.5266 17.6902H67.4327C65.8351 17.6902 64.303 18.3226 63.1734 19.4485C62.0438 20.5743 61.4092 22.1012 61.4092 23.6933C61.4092 25.2855 62.0438 26.8124 63.1734 27.9382C64.303 29.064 65.8351 29.6965 67.4327 29.6965H91.5266C91.8013 29.6783 92.0768 29.7165 92.3361 29.8087C92.5954 29.9009 92.8329 30.0452 93.034 30.2327C93.235 30.4202 93.3953 30.6468 93.5049 30.8985C93.6145 31.1502 93.671 31.4217 93.671 31.6961C93.671 31.9705 93.6145 32.242 93.5049 32.4937C93.3953 32.7454 93.235 32.972 93.034 33.1595C92.8329 33.347 92.5954 33.4913 92.3361 33.5835C92.0768 33.6757 91.8013 33.7139 91.5266 33.6957H67.4327Z" fill="black"/>
<path d="M101.563 33.696H97.55V13.6914H101.563V33.696ZM101.563 7.68818C101.563 8.08491 101.445 8.47272 101.223 8.80247C101.002 9.13221 100.687 9.38907 100.319 9.54048C99.9514 9.6919 99.5466 9.73106 99.1563 9.65301C98.766 9.57497 98.4078 9.38322 98.1269 9.10207C97.8461 8.82091 97.6553 8.463 97.5787 8.07368C97.5021 7.68436 97.5432 7.28114 97.6968 6.91511C97.8503 6.54908 98.1094 6.23672 98.4413 6.01758C98.7731 5.79845 99.1627 5.68241 99.5608 5.68416C99.8251 5.68178 100.087 5.73205 100.332 5.83203C100.576 5.932 100.798 6.07967 100.985 6.26636C101.171 6.45304 101.319 6.67498 101.418 6.91915C101.517 7.16331 101.566 7.42477 101.563 7.68818Z" fill="black"/>
<path d="M131.68 17.7344H109.597V33.6956H105.584V13.6909H131.68C134.343 13.6933 136.895 14.7491 138.777 16.6263C140.659 18.5035 141.716 21.0485 141.716 23.7021V33.6956H137.704V23.7021C137.696 22.1154 137.058 20.5962 135.929 19.4776C134.8 18.3589 133.272 17.7321 131.68 17.7344Z" fill="black"/>
<path d="M149.75 33.6957H145.738V13.691H149.75V33.6957ZM149.75 7.68779C149.75 8.08415 149.633 8.4716 149.412 8.80116C149.191 9.13072 148.877 9.38758 148.509 9.53926C148.142 9.69094 147.737 9.73063 147.347 9.6533C146.957 9.57597 146.599 9.38511 146.318 9.10484C146.037 8.82458 145.845 8.4675 145.768 8.07875C145.69 7.69001 145.73 7.28707 145.882 6.92089C146.034 6.5547 146.292 6.24172 146.623 6.02151C146.953 5.80131 147.342 5.68378 147.74 5.68378C148.005 5.6802 148.268 5.72959 148.513 5.82903C148.759 5.92848 148.982 6.07596 149.17 6.26276C149.357 6.44957 149.505 6.67192 149.605 6.91667C149.705 7.16143 149.754 7.42363 149.75 7.68779Z" fill="black"/>
<path d="M163.799 17.7345C162.202 17.7345 160.67 18.367 159.54 19.4928C158.41 20.6186 157.776 22.1455 157.776 23.7377C157.776 25.3298 158.41 26.8567 159.54 27.9826C160.67 29.1084 162.202 29.7409 163.799 29.7409H179.868C180.659 29.7409 181.442 29.5856 182.173 29.2839C182.904 28.9822 183.568 28.54 184.127 27.9826C184.686 27.4251 185.13 26.7633 185.433 26.035C185.736 25.3067 185.891 24.526 185.891 23.7377C185.891 22.9493 185.736 22.1687 185.433 21.4404C185.13 20.712 184.686 20.0502 184.127 19.4928C183.568 18.9353 182.904 18.4931 182.173 18.1915C181.442 17.8898 180.659 17.7345 179.868 17.7345H163.799ZM163.799 33.6957C161.188 33.6182 158.71 32.53 156.89 30.6618C155.071 28.7936 154.053 26.2925 154.053 23.6889C154.053 21.0854 155.071 18.5842 156.89 16.716C158.71 14.8479 161.188 13.7596 163.799 13.6821H179.868C182.479 13.7596 184.957 14.8479 186.777 16.716C188.596 18.5842 189.614 21.0854 189.614 23.6889C189.614 26.2925 188.596 28.7936 186.777 30.6618C184.957 32.53 182.479 33.6182 179.868 33.6957H163.799Z" fill="black"/>
<path d="M220.021 17.7344H197.938V33.6956H193.961V13.6909H220.066C222.728 13.6933 225.281 14.7491 227.163 16.6263C229.045 18.5035 230.102 21.0485 230.102 23.7021V33.6956H226.08V23.7021C226.078 22.9131 225.919 22.1323 225.613 21.4047C225.307 20.6771 224.859 20.017 224.296 19.4623C223.733 18.9077 223.066 18.4695 222.332 18.173C221.598 17.8765 220.813 17.7274 220.021 17.7344Z" fill="black"/>
<path d="M238.092 33.696H234.07V13.6914H238.092V33.696ZM238.092 7.68818C238.092 8.08453 237.974 8.47199 237.753 8.80155C237.532 9.13111 237.218 9.38797 236.851 9.53965C236.483 9.69133 236.079 9.73101 235.689 9.65369C235.299 9.57636 234.94 9.3855 234.659 9.10523C234.378 8.82496 234.186 8.46788 234.109 8.07914C234.031 7.6904 234.071 7.28746 234.223 6.92127C234.375 6.55509 234.633 6.2421 234.964 6.0219C235.295 5.8017 235.683 5.68416 236.081 5.68416C236.346 5.6818 236.608 5.73202 236.853 5.83189C237.098 5.93176 237.321 6.07929 237.508 6.26585C237.695 6.45241 237.843 6.67428 237.944 6.91848C238.044 7.16269 238.094 7.42435 238.092 7.68818Z" fill="black"/>
<path d="M252.141 33.6957C249.529 33.6182 247.051 32.53 245.232 30.6618C243.412 28.7936 242.395 26.2925 242.395 23.6889C242.395 21.0854 243.412 18.5842 245.232 16.716C247.051 14.8479 249.529 13.7596 252.141 13.6821H276.235C276.768 13.6821 277.279 13.8933 277.656 14.2691C278.033 14.6449 278.245 15.1546 278.245 15.6861C278.245 16.2176 278.033 16.7274 277.656 17.1032C277.279 17.479 276.768 17.6902 276.235 17.6902H252.141C250.543 17.6902 249.011 18.3226 247.881 19.4484C246.752 20.5743 246.117 22.1012 246.117 23.6933C246.117 25.2855 246.752 26.8124 247.881 27.9382C249.011 29.064 250.543 29.6965 252.141 29.6965H276.235C276.744 29.7303 277.221 29.9557 277.569 30.327C277.918 30.6982 278.112 31.1877 278.112 31.6961C278.112 32.2045 277.918 32.694 277.569 33.0652C277.221 33.4365 276.744 33.6619 276.235 33.6957H252.141Z" fill="black"/>
<path d="M10.5967 13.0614L10.739 13.1944L11.1928 13.6467L12.563 14.9945L19.8232 22.3189C20.359 21.8016 20.9567 21.3519 21.6026 20.9799L17.6789 14.1876L17.5989 14.0457C17.4654 13.824 17.3497 13.6112 17.2163 13.3984L17.0027 13.0437L15.1254 9.75391C13.5249 10.6795 12.0328 11.7799 10.6768 13.0348" fill="#D65358"/>
<path d="M12.563 14.9946C11.3658 16.1758 10.3415 17.5191 9.52011 18.9849L11.522 20.1465L18.4174 24.1102C18.7963 23.4632 19.2568 22.8672 19.7876 22.3368C19.7876 22.3368 19.8321 22.2836 19.8499 22.2747L12.563 14.9946Z" fill="#E83F5F"/>
<path d="M11.4953 20.1642L10.7746 19.7651C10.0984 20.9499 9.57804 22.2165 9.2265 23.5337L17.5811 25.9634C17.7696 25.319 18.0418 24.7019 18.3907 24.1279L11.4953 20.1642Z" fill="#D23035"/>
<path d="M9.2265 23.5341L5.10705 22.3281C5.02698 22.6562 4.97359 22.8247 4.97359 22.8247C4.48219 24.6349 4.22505 26.5004 4.20842 28.3756H7.50043H8.45244H9.07525H9.72475H13.2303H17.2341C17.2334 27.5476 17.3502 26.7237 17.5811 25.9283L9.2265 23.5341Z" fill="#E6211A"/>
<path d="M9.72475 28.3755H8.45244C8.44207 29.7506 8.59135 31.1224 8.8973 32.4633L17.4387 30.4238C17.297 29.7893 17.2284 29.1408 17.2341 28.4908V28.3755H13.2303H9.72475Z" fill="#9E6268"/>
<path d="M8.8973 32.4633H8.94179L7.42925 32.818C7.7097 33.8567 8.08187 34.8685 8.54141 35.8418L9.96498 35.2388L17.8925 31.8692C17.6907 31.4046 17.5386 30.9202 17.4387 30.4238L8.8973 32.4633Z" fill="#612167"/>
<path d="M9.96498 35.2387H9.8938C10.1598 35.8725 10.472 36.486 10.828 37.0743L18.3551 32.8091C18.1849 32.5038 18.0305 32.1901 17.8925 31.8691L9.96498 35.2387Z" fill="#5C4D64"/>
<path d="M23.8893 11.1904L24.9124 19.8982C25.2239 19.8982 25.5531 19.8538 25.8823 19.8538H26.1581L26.3894 11.1018C25.5522 11.0709 24.7139 11.0976 23.8804 11.1816" fill="#757D4D"/>
<path d="M23.8893 11.1904L23.7113 9.64746C22.7261 9.7709 21.7509 9.9635 20.793 10.2238L22.0119 14.6575V14.5954L23.5334 19.9158L23.6045 20.1552V20.2084C24.0415 20.0862 24.4879 20.0002 24.9391 19.9513L23.8893 11.1904Z" fill="#E1E300"/>
<path d="M17.2341 13.4164L17.6789 14.2233L21.576 20.9802C22.2017 20.6078 22.8793 20.3299 23.5867 20.1556L23.5067 19.8629L21.9852 14.5425L21.1578 11.7139C19.7849 12.1112 18.4668 12.6771 17.2341 13.3987" fill="#BA6B54"/>
<path d="M7.42925 39.637C7.58642 39.9427 7.76171 40.2388 7.95419 40.5238L18.7822 33.625L7.42925 39.637Z" fill="#044C9A"/>
<path d="M5.64089 42.563C5.90641 43.0122 6.20374 43.4418 6.53062 43.8488L18.7733 33.6514L5.64089 42.563Z" fill="#044C9A"/>
<path d="M12.8922 40.054C13.1572 40.3016 13.4068 40.5651 13.6396 40.8431C14.6574 41.8743 15.8203 42.7525 17.0917 43.4501L17.6611 42.5634L21.5048 35.9839C20.8584 35.602 20.2609 35.1435 19.7253 34.6183L19.3872 34.2725L12.8922 40.054Z" fill="#1F6096"/>
<path d="M23.569 36.8262C22.8409 36.6334 22.1453 36.3346 21.5048 35.9395L17.6611 42.5633L14.992 47.1566C16.5845 48.0721 18.2974 48.7616 20.0812 49.205L20.8464 46.5448L23.569 36.8262Z" fill="#575097"/>
<path d="M32.0303 34.5825C31.5172 35.1047 30.9403 35.5605 30.3131 35.9392L34.6372 43.4498C35.9359 42.7232 37.1326 41.8288 38.1961 40.7896L31.968 34.5825" fill="#459562"/>
<path d="M25.9445 37.1277H25.8911C25.1069 37.1337 24.3255 37.0322 23.569 36.8262L20.8464 46.4827L20.8019 46.6334C20.8694 46.6475 20.9391 46.6475 21.0065 46.6334C22.6114 47.0858 24.2681 47.3302 25.9356 47.3606V37.1277H25.9445Z" fill="#5D85C6"/>
<path d="M28.2222 36.8262C27.4799 37.0273 26.7139 37.1287 25.9445 37.1277V45.8354C27.4878 45.8549 29.0256 45.6488 30.5088 45.2235L28.2222 36.8262Z" fill="#00965F"/>
<path d="M30.2953 35.9482C29.6525 36.3452 28.9538 36.6441 28.2222 36.835L30.5089 45.2235L31.621 49.3202C33.3962 48.7718 35.1081 48.0377 36.7281 47.1299L35.6871 45.2235L34.6372 43.45L30.2953 35.9482Z" fill="#5E7875"/>
<path d="M38.036 15.9612L40.9721 12.9285C39.6437 11.6359 38.1475 10.5265 36.5234 9.62988L34.4326 13.301L30.1441 20.9535C30.7926 21.3109 31.3909 21.7522 31.9235 22.2658L37.8313 16.1474L38.036 15.9168" fill="#73BF39"/>
<path d="M38.036 15.9614L37.8135 16.1831L31.9057 22.3016L32.0125 22.4168C32.5537 22.9403 33.018 23.5374 33.3916 24.1903L40.8297 19.9074L40.9721 19.8187C40.1638 18.4125 39.177 17.1161 38.036 15.9614Z" fill="#489F41"/>
<path d="M34.4326 13.3009C33.1448 12.6137 31.784 12.0724 30.3754 11.687H30.2419L28.0443 20.1376C28.7852 20.3255 29.4932 20.6245 30.1441 21.0243L34.4326 13.3009Z" fill="#69A63C"/>
<path d="M42.3245 19.0024L40.8297 19.8892L33.3916 24.1721C33.7686 24.7866 34.0533 25.4528 34.2368 26.1495L44.0238 23.3652H44.1306C43.6851 21.8685 43.0671 20.4283 42.2889 19.0734" fill="#39873B"/>
<path d="M44.1662 23.2947H44.0594L34.2724 26.079C34.4723 26.7832 34.577 27.5108 34.5838 28.2426L43.3921 28.1628L47.5828 28.1096C47.5835 26.2271 47.3107 24.3544 46.7731 22.5498L44.1662 23.2947Z" fill="#39873B"/>
<path d="M34.5482 28.4905C34.5494 29.1667 34.4808 29.8412 34.3436 30.5034L42.7693 32.6138C43.1561 31.1674 43.3535 29.6771 43.3566 28.1802L34.5482 28.26V28.4728" fill="#39873B"/>
<path d="M33.8097 32.0552C33.624 32.4735 33.4007 32.8741 33.1424 33.2523L40.4026 38.1293C40.9146 37.3811 41.3583 36.5888 41.7283 35.7617L33.8097 32.0552Z" fill="#1BB888"/>
<path d="M44.2196 32.9774L42.7693 32.6138L34.3436 30.5034C34.2196 31.0376 34.0407 31.5576 33.8097 32.0552L41.7372 35.7617L43.0807 36.3913C43.5709 35.2921 43.9552 34.149 44.2285 32.9774" fill="#39873B"/>
<path d="M30.064 7.28883C29.7406 7.19754 29.4103 7.1323 29.0764 7.09375L26.9232 19.6676L30.064 7.28883Z" fill="#73BF39"/>
<path d="M29.1565 3.98123C28.2222 3.89256 27.6795 3.83936 27.5638 3.83936L26.9232 19.6675L29.1565 3.98123Z" fill="#73BF39"/>
<path d="M41.5237 43.2462C41.6216 43.1664 41.8529 42.9269 42.2177 42.5368L32.7955 33.9443L41.5237 43.2462Z" fill="#1BB888"/>
<path d="M44.8157 44.2393C45.1807 43.8551 45.5111 43.4397 45.8033 42.9979L32.7955 33.9443L44.8157 44.2393Z" fill="#1BB888"/>
<path d="M58.8734 39.1401H64.9681V40.4259H60.3148V42.5541H64.4343V43.8398H60.3148V46.0389H65.0215V47.3247H58.8734V39.1401Z" fill="black"/>
<path d="M71.6767 43.157L68.7939 39.1401H70.5022L72.5397 42.0752L74.595 39.1401H76.2499L73.385 43.1393L76.3655 47.3247H74.6662L72.5041 44.23L70.3332 47.3247H68.6783L71.6767 43.157Z" fill="black"/>
<path d="M83.5457 43.3965C84.64 43.3965 85.3251 42.7846 85.3251 41.9333C85.3251 40.9757 84.64 40.4702 83.5457 40.4702H81.8552V43.4231L83.5457 43.3965ZM80.4227 39.1401H83.6346C85.5476 39.1401 86.7576 40.222 86.7576 41.8713C86.7576 43.7068 85.2806 44.6645 83.4745 44.6645H81.8552V47.3247H80.4227V39.1401Z" fill="black"/>
<path d="M90.8326 39.1401H96.9272V40.4259H92.2739V42.5541H96.3934V43.8398H92.2739V46.0389H96.9806V47.3247H90.8326V39.1401Z" fill="black"/>
<path d="M104.819 43.193C105.851 43.193 106.51 42.661 106.51 41.8274C106.51 40.9407 105.878 40.4619 104.81 40.4619H102.71V43.2107L104.819 43.193ZM101.26 39.1406H104.926C105.792 39.0912 106.642 39.3844 107.293 39.9564C107.518 40.1924 107.695 40.4706 107.813 40.775C107.93 41.0793 107.986 41.4039 107.978 41.7299C107.996 42.307 107.81 42.8723 107.452 43.3263C107.094 43.7804 106.587 44.0942 106.02 44.2127L108.236 47.3074H106.536L104.517 44.4522H102.737V47.3074H101.287L101.26 39.1406Z" fill="black"/>
<path d="M113.841 39.1401H112.4V47.3335H113.841V39.1401Z" fill="black"/>
<path d="M118.601 39.1401H124.696V40.4259H120.042V42.5541H124.162V43.8398H120.042V46.0389H124.749V47.3247H118.601V39.1401Z" fill="black"/>
<path d="M129.029 39.1401H130.372L134.767 44.7975V39.1401H136.191V47.3247H134.981L130.452 41.4988V47.3247H129.029V39.1401Z" fill="black"/>
<path d="M140.506 43.2547C140.494 42.6963 140.595 42.1412 140.804 41.6227C141.012 41.1042 141.323 40.6329 141.719 40.2371C142.114 39.8414 142.586 39.5292 143.105 39.3194C143.624 39.1096 144.181 39.0065 144.741 39.0161C145.338 38.9922 145.933 39.0935 146.488 39.3135C147.043 39.5335 147.545 39.8672 147.962 40.293L147.072 41.3571C146.776 41.043 146.419 40.791 146.023 40.6159C145.628 40.4408 145.201 40.3461 144.768 40.3374C144.401 40.3487 144.04 40.4329 143.706 40.585C143.372 40.7372 143.072 40.9543 142.824 41.2235C142.575 41.4927 142.383 41.8087 142.258 42.153C142.134 42.4972 142.08 42.8627 142.099 43.2281C142.08 43.5944 142.134 43.9608 142.258 44.306C142.382 44.6513 142.574 44.9684 142.823 45.2391C143.071 45.5097 143.371 45.7285 143.705 45.8825C144.039 46.0366 144.4 46.123 144.768 46.1366C145.214 46.1325 145.654 46.0357 146.06 45.8525C146.466 45.6692 146.829 45.4036 147.126 45.0725L148.06 45.9592C147.647 46.4337 147.134 46.8104 146.557 47.062C145.979 47.3136 145.353 47.4337 144.724 47.4135C144.169 47.4196 143.619 47.3144 143.106 47.1043C142.593 46.8943 142.127 46.5835 141.737 46.1906C141.347 45.7976 141.04 45.3305 140.835 44.817C140.629 44.3036 140.53 43.7542 140.542 43.2015" fill="black"/>
<path d="M152.099 39.1401H158.194V40.4259H153.541V42.5541H157.669V43.8398H153.541V46.0389H158.256V47.3247H152.099V39.1401Z" fill="black"/>
<path d="M161.975 46.11L162.865 45.0814C163.563 45.7538 164.493 46.1345 165.463 46.1454C166.353 46.1454 166.913 45.7287 166.913 45.1168C166.913 44.5316 166.584 44.2301 165.063 43.8665C163.283 43.4409 162.322 42.9266 162.322 41.4192C162.322 40.0181 163.497 39.0516 165.134 39.0516C166.218 39.0313 167.275 39.3959 168.115 40.0802L167.34 41.162C166.714 40.6299 165.929 40.3183 165.107 40.2753C164.218 40.2753 163.773 40.7098 163.773 41.2507C163.773 41.8891 164.146 42.1374 165.721 42.5453C167.456 42.9621 168.39 43.5828 168.39 44.9395C168.39 46.4647 167.189 47.378 165.463 47.378C164.182 47.4099 162.935 46.9568 161.975 46.11Z" fill="black"/>
<path d="M173.916 45.729H172.35V47.334H173.916V45.729Z" fill="black"/>
<path d="M187.484 46.0127C187.858 46.0379 188.232 45.9844 188.584 45.8558C188.935 45.7272 189.256 45.5263 189.524 45.2662C189.793 45.0061 190.003 44.6927 190.142 44.3461C190.281 43.9996 190.346 43.6279 190.331 43.255C190.35 42.8799 190.288 42.5052 190.151 42.1554C190.014 41.8057 189.804 41.4889 189.535 41.2259C189.266 40.9629 188.944 40.7596 188.59 40.6294C188.237 40.4993 187.86 40.4451 187.484 40.4706H185.865V46.0393L187.484 46.0127ZM184.414 39.1405H187.484C188.043 39.1041 188.603 39.1824 189.13 39.3705C189.657 39.5585 190.14 39.8524 190.549 40.2339C190.958 40.6154 191.283 41.0764 191.506 41.5885C191.729 42.1005 191.844 42.6526 191.844 43.2106C191.845 43.7702 191.731 44.324 191.509 44.8379C191.287 45.3518 190.961 45.815 190.553 46.1989C190.144 46.5827 189.661 46.8791 189.134 47.0697C188.606 47.2604 188.044 47.3412 187.484 47.3073H184.414V39.1405Z" fill="black"/>
<path d="M196.159 39.1401H202.253V40.4259H197.609V42.5541H201.729V43.8398H197.609V46.0389H202.316V47.3247H196.159V39.1401Z" fill="black"/>
<path d="M206.595 39.1401H208.037V46.0212H212.361V47.3247H206.595V39.1401Z" fill="black"/>
<path d="M217.948 39.1401H216.507V47.3335H217.948V39.1401Z" fill="black"/>
<path d="M222.005 39.1401H223.607L226.08 45.4359L228.545 39.1401H230.111L226.694 47.3867H225.422L222.005 39.1401Z" fill="black"/>
<path d="M234.079 39.1401H240.174V40.4259H235.52V42.5541H239.649V43.8398H235.52V46.0389H240.227V47.3247H234.079V39.1401Z" fill="black"/>
<path d="M248.066 43.193C249.098 43.193 249.765 42.661 249.765 41.8274C249.765 40.9407 249.124 40.4619 248.057 40.4619H245.957V43.2107L248.066 43.193ZM244.507 39.1406H248.164C249.032 39.0937 249.884 39.3864 250.539 39.9564C250.764 40.1929 250.939 40.4713 251.055 40.7757C251.171 41.0801 251.226 41.4044 251.215 41.7299C251.234 42.307 251.048 42.8723 250.69 43.3263C250.332 43.7804 249.825 44.0942 249.258 44.2127L251.473 47.3074H249.774L247.754 44.4522H245.975V47.3074H244.533L244.507 39.1406Z" fill="black"/>
<path d="M255.566 39.1401H261.652V40.4259H257.007V42.5541H261.127V43.8398H257.007V46.0389H261.714V47.3247H255.566V39.1401Z" fill="black"/>
<path d="M269.063 46.0127C269.437 46.0379 269.812 45.9844 270.163 45.8558C270.515 45.7272 270.835 45.5263 271.104 45.2662C271.372 45.0061 271.583 44.6927 271.722 44.3461C271.861 43.9996 271.925 43.6279 271.91 43.255C271.929 42.8799 271.867 42.5052 271.73 42.1554C271.593 41.8057 271.383 41.4889 271.114 41.2259C270.845 40.9629 270.523 40.7596 270.17 40.6294C269.816 40.4993 269.439 40.4451 269.063 40.4706H267.444V46.0393L269.063 46.0127ZM266.029 39.1405H269.099C269.658 39.1041 270.218 39.1824 270.745 39.3705C271.272 39.5585 271.755 39.8524 272.164 40.2339C272.572 40.6154 272.898 41.0764 273.121 41.5885C273.344 42.1005 273.459 42.6526 273.459 43.2106C273.46 43.7702 273.346 44.324 273.124 44.8379C272.902 45.3518 272.576 45.815 272.168 46.1989C271.759 46.5827 271.276 46.8791 270.749 47.0697C270.221 47.2604 269.659 47.3412 269.099 47.3073H266.029V39.1405Z" fill="black"/>
<path d="M278.575 45.729H277.017V47.334H278.575V45.729Z" fill="black"/>
</svg>
