<svg width="232" height="53" viewBox="0 0 232 53" fill="none" xmlns="http://www.w3.org/2000/svg">
<path fill-rule="evenodd" clip-rule="evenodd" d="M128.915 18.1565C129.53 18.1334 130.14 18.0452 130.737 17.8933C130.794 17.8766 130.854 17.8745 130.912 17.8871C130.97 17.8998 131.024 17.9268 131.069 17.9657C131.114 18.0047 131.149 18.0545 131.171 18.1105C131.192 18.1665 131.2 18.2272 131.193 18.287C131.207 18.3436 131.21 18.4027 131.202 18.4605C131.193 18.5184 131.173 18.5738 131.142 18.6234C131.112 18.6731 131.072 18.7159 131.025 18.7493C130.977 18.7826 130.924 18.8059 130.868 18.8175C130.229 18.9905 129.575 19.1003 128.915 19.1454H128.005C126.075 19.12 124.171 18.6998 122.404 17.91C120.638 17.1201 119.045 15.9766 117.722 14.5476C117.592 14.4161 117.527 14.2198 117.658 14.0882C117.678 13.9976 117.728 13.9164 117.798 13.8572C117.869 13.798 117.956 13.7639 118.048 13.7603C118.719 13.6911 119.355 13.4162 119.87 12.9719C119.997 12.8333 120.087 12.6644 120.133 12.4807C120.178 12.2971 120.178 12.1047 120.13 11.9214C119.547 9.32295 119.966 6.59565 121.302 4.30264C122.697 2.17488 124.864 0.696327 127.328 0.190769C129.793 -0.314789 132.353 0.193853 134.45 1.60531C135.497 2.25836 136.403 3.11873 137.117 4.13531C137.83 5.1519 138.335 6.30396 138.602 7.52309C138.869 8.74221 138.893 10.0035 138.672 11.2321C138.45 12.4607 137.989 13.6315 137.314 14.675L136.533 15.6597C136.445 15.7441 136.328 15.7911 136.207 15.7911C136.086 15.7911 135.97 15.7441 135.882 15.6597C135.832 15.6231 135.791 15.5763 135.76 15.5222C135.73 15.4681 135.711 15.4081 135.705 15.346C135.699 15.284 135.705 15.2213 135.725 15.1622C135.744 15.103 135.776 15.0487 135.817 15.0029C135.886 14.9105 135.963 14.8182 136.043 14.7227C136.199 14.5435 136.341 14.3519 136.468 14.1497C137.074 13.2069 137.489 12.1507 137.69 11.0428C137.89 9.93489 137.872 8.79748 137.635 7.69695C137.399 6.59642 136.949 5.55484 136.313 4.633C135.676 3.71117 134.866 2.92756 133.929 2.32792C132.023 1.09668 129.721 0.668658 127.51 1.13451C125.299 1.60036 123.353 2.9235 122.085 4.82365C120.892 6.92919 120.519 9.41397 121.042 11.7856C121.092 12.0971 121.077 12.4158 120.998 12.7211C120.92 13.0265 120.779 13.3117 120.586 13.5587C120.152 13.9982 119.613 14.3152 119.022 14.4787C120.333 15.7519 121.889 16.7358 123.591 17.3687C125.293 18.0016 127.106 18.2698 128.915 18.1565V18.1565ZM147.853 13.235C148.344 13.7177 148.993 13.9985 149.675 14.0234C149.851 14.0587 150.011 14.151 150.131 14.2866C150.156 14.3677 150.157 14.4546 150.133 14.5363C150.11 14.618 150.064 14.691 150 14.7461C148.661 16.1714 147.056 17.3118 145.28 18.1011C143.504 18.8903 141.591 19.3128 139.653 19.3438H138.742C136.134 19.2123 132.364 17.9644 130.412 14.8776C129.24 13.0505 128.73 10.8659 128.967 8.69787C129.204 6.52981 130.175 4.51316 131.713 2.99323C131.754 2.94672 131.805 2.90951 131.861 2.88403C131.917 2.85856 131.977 2.84539 132.039 2.84539C132.1 2.84539 132.161 2.85856 132.217 2.88403C132.273 2.90951 132.323 2.94672 132.364 2.99323C132.41 3.03417 132.447 3.08465 132.472 3.1413C132.498 3.19794 132.511 3.25943 132.511 3.32165C132.511 3.38386 132.498 3.44535 132.472 3.502C132.447 3.55864 132.41 3.60913 132.364 3.65006C130.971 5.01449 130.091 6.83205 129.877 8.78748C129.663 10.7429 130.129 12.7128 131.193 14.3556C132.885 16.9171 136.269 18.2307 138.806 18.4281C140.615 18.5411 142.427 18.2728 144.129 17.6399C145.831 17.0071 147.387 16.0233 148.698 14.7503C148.096 14.6139 147.55 14.2928 147.133 13.8303C146.927 13.5914 146.778 13.3067 146.699 12.9988C146.619 12.6909 146.612 12.3685 146.677 12.0572C147.2 9.68561 146.828 7.20083 145.635 5.09529C144.72 3.71383 143.441 2.62328 141.944 1.94931C140.447 1.27534 138.794 1.04537 137.174 1.28591C136.913 1.3517 136.718 1.15434 136.653 0.892242C136.587 0.630149 136.783 0.432783 137.043 0.361688C138.836 0.079596 140.671 0.325437 142.332 1.07019C143.992 1.81494 145.409 3.02751 146.414 4.56474C147.651 6.46942 148.041 9.03094 147.585 12.1835C147.538 12.3675 147.539 12.5605 147.586 12.7444C147.633 12.9283 147.724 13.0971 147.853 13.235V13.235Z" fill="#00AEEF"/>
<path fill-rule="evenodd" clip-rule="evenodd" d="M147.854 13.2305C148.345 13.7132 148.994 13.994 149.676 14.0189C149.852 14.0542 150.012 14.1465 150.132 14.2821C150.157 14.3632 150.158 14.4501 150.135 14.5318C150.111 14.6135 150.065 14.6865 150.001 14.7416C148.662 16.1669 147.057 17.3073 145.281 18.0966C143.505 18.8859 141.592 19.3083 139.654 19.3394H138.743C136.135 19.2078 132.365 17.9599 130.413 14.8731C129.241 13.046 128.731 10.8614 128.968 8.69334C129.205 6.52528 130.176 4.50863 131.714 2.98869C131.755 2.94218 131.806 2.90497 131.862 2.87949C131.918 2.85402 131.978 2.84085 132.04 2.84085C132.101 2.84085 132.162 2.85402 132.218 2.87949C132.274 2.90497 132.324 2.94218 132.365 2.98869C132.411 3.02963 132.448 3.08011 132.473 3.13676C132.499 3.1934 132.512 3.25489 132.512 3.31711C132.512 3.37932 132.499 3.44081 132.473 3.49746C132.448 3.5541 132.411 3.60459 132.365 3.64552C130.972 5.00996 130.092 6.82753 129.878 8.78296C129.664 10.7384 130.13 12.7083 131.194 14.3511C132.886 16.9126 136.27 18.2262 138.807 18.4236C140.616 18.5366 142.428 18.2683 144.13 17.6354C145.833 17.0026 147.388 16.0188 148.699 14.7458C148.097 14.6094 147.551 14.2883 147.134 13.8258C146.928 13.5869 146.779 13.3022 146.7 12.9943C146.62 12.6864 146.613 12.3639 146.679 12.0527C147.201 9.68109 146.829 7.19631 145.636 5.09076C144.721 3.70929 143.442 2.61874 141.945 1.94477C140.448 1.27079 138.795 1.04083 137.175 1.28137C136.914 1.34716 136.719 1.14979 136.654 0.887694C136.588 0.6256 136.784 0.428233 137.044 0.357139C138.837 0.0750452 140.672 0.320888 142.333 1.06564C143.993 1.8104 145.41 3.02297 146.415 4.5602C147.652 6.46489 148.042 9.02641 147.586 12.179C147.54 12.363 147.54 12.556 147.587 12.7399C147.634 12.9238 147.726 13.0926 147.854 13.2305V13.2305Z" fill="#009985"/>
<path fill-rule="evenodd" clip-rule="evenodd" d="M206.943 14.7623H195.978V22.222H198.939V26.3254C196.826 24.3369 194.056 23.228 191.177 23.2182C187.564 23.2984 184.125 24.8123 181.593 27.4369C179.062 30.0615 177.639 33.5888 177.629 37.2659C177.619 41.0272 179.058 44.6427 181.636 47.3381C184.215 50.0336 187.728 51.5947 191.424 51.6871C192.859 51.7586 194.289 51.48 195.597 50.8745C196.904 50.269 198.05 49.3541 198.939 48.2063V51.0664H209.902V43.6048H206.941L206.943 14.7623ZM192.407 43.9784C190.686 43.9737 189.036 43.2795 187.814 42.0462C186.592 40.8128 185.897 39.1395 185.879 37.3884C185.92 35.6119 186.635 33.9207 187.875 32.6692C189.115 31.4178 190.783 30.7034 192.529 30.6759C194.233 30.6712 195.87 31.3452 197.091 32.5537C198.311 33.7622 199.018 35.409 199.06 37.1413C199.062 38.9435 198.364 40.6735 197.118 41.9542C195.872 43.2349 194.178 43.9625 192.407 43.9784V43.9784ZM172.452 33.4115C172.546 31.9866 172.379 30.5564 171.959 29.1936C171.198 27.3262 169.893 25.741 168.219 24.6517C166.545 23.5625 164.583 23.0215 162.598 23.1017C161.129 23.0215 159.669 23.3639 158.383 24.0896C157.097 24.8154 156.039 25.8952 155.329 27.2051V23.7143H144.366V31.182H147.328V43.7393H144.366V51.199H158.039V43.7293H155.204V37.5129C155.204 34.6528 155.574 31.172 160.01 31.172C162.72 31.172 164.197 32.5398 164.197 35.7715V51.187H175.159V43.7293H172.198L172.452 33.4115ZM113.078 31.0495H111.477L111.355 23.5898H124.043V31.0495H121.579L113.941 50.9339H105.565L98.0513 31.0495H95.5856V23.5898H108.396V31.0495H106.917L109.75 40.8712L113.078 31.0495ZM126.382 23.7143H137.344V43.7293H140.179V51.189H126.382V43.7293H129.215V31.182H126.382V23.7143ZM231.949 31.5476V23.3488C230.382 23.3302 228.838 23.7346 227.475 24.5207C226.112 25.3068 224.978 26.4466 224.189 27.8238V23.7143H213.965V31.182H216.926V43.7393H213.965V51.199H227.762V43.7293H224.929V38.6317C224.927 34.2812 227.391 31.7846 231.947 31.5456L231.949 31.5476ZM25.1268 31.421L19.3366 37.3884L25.1268 43.7293H28.9448V51.189H20.075L10.836 39.0052V51.189H0V43.7293H2.83288V22.5936H0.120416V15.1359H10.9604V36.1451L16.0102 30.5514H13.6709V23.9614H27.7129V31.421H25.1268ZM42.0037 26.697C42.91 25.6183 44.0479 24.7659 45.3294 24.2055C46.6109 23.6452 48.0018 23.3919 49.3948 23.4653C52.9484 23.6233 56.307 25.1626 58.778 27.7657C61.249 30.3688 62.6442 33.8373 62.6758 37.4561C62.7075 41.0749 61.3732 44.5681 58.9481 47.2155C56.5229 49.8629 53.1918 51.4627 49.6416 51.6851C48.1945 51.7171 46.7585 51.4215 45.4375 50.8195C44.1165 50.2175 42.9436 49.3242 42.0037 48.2043V51.189H31.1617V43.7293H34.1229V22.5936H31.1617V15.1359H42.0017L42.0037 26.697ZM41.8813 37.5129C41.8799 38.3831 42.0482 39.2449 42.3765 40.0485C42.7047 40.8521 43.1864 41.5814 43.7936 42.1943C44.4007 42.8072 45.1214 43.2914 45.9137 43.6191C46.7061 43.9467 47.5545 44.1111 48.4097 44.1029C49.2485 44.0946 50.0773 43.9169 50.8481 43.5803C51.6189 43.2436 52.3163 42.7545 52.8999 42.1415C53.4835 41.5285 53.9417 40.8037 54.2479 40.0092C54.554 39.2146 54.7021 38.3661 54.6835 37.5129C54.6885 36.6522 54.5267 35.7989 54.2073 35.0018C53.888 34.2047 53.4175 33.4794 52.8226 32.8675C52.2276 32.2555 51.52 31.7687 50.7402 31.4351C49.9603 31.1014 49.1235 30.9274 48.2775 30.9229C46.5764 30.9539 44.9547 31.6606 43.7591 32.892C42.5635 34.1235 41.8888 35.782 41.8793 37.5129H41.8813ZM73.5385 37.6374C73.5232 38.501 73.6779 39.359 73.9935 40.1608C74.3092 40.9626 74.7793 41.6921 75.3763 42.3062C75.9732 42.9203 76.685 43.4067 77.4695 43.7366C78.2541 44.0666 79.0956 44.2334 79.9446 44.2274C80.8699 44.2794 81.7906 44.0613 82.5982 43.5987C83.4058 43.1361 84.0666 42.4483 84.5028 41.6163H93.3766C92.4129 44.9724 90.2909 47.8619 87.4008 49.7535C84.5106 51.6451 81.0465 52.4118 77.6452 51.9127C74.2438 51.4135 71.1339 49.6821 68.887 47.0366C66.64 44.3911 65.4072 41.0093 65.4149 37.5129C65.3716 33.7838 66.7658 30.1858 69.2988 27.49C71.8318 24.7943 75.3019 23.2154 78.9654 23.0917C80.1866 23.0891 81.3953 23.3424 82.5162 23.8358C83.637 24.3293 84.6459 25.0523 85.48 25.9599V23.9714H92.2553V33.7931H84.87C84.2806 32.9544 83.5046 32.2694 82.6053 31.794C81.7061 31.3186 80.7092 31.0662 79.6958 31.0575C78.8635 31.0674 78.0416 31.2466 77.2785 31.5848C76.5154 31.9229 75.8266 32.413 75.2526 33.0262C74.6786 33.6394 74.231 34.3633 73.9363 35.1553C73.6416 35.9472 73.5056 36.7912 73.5365 37.6374H73.5385Z" fill="#00AEEF"/>
<path fill-rule="evenodd" clip-rule="evenodd" d="M206.943 14.7623H195.978V22.222H198.94V26.3254C196.826 24.3368 194.056 23.228 191.177 23.2182C187.564 23.2984 184.125 24.8123 181.593 27.4368C179.062 30.0614 177.639 33.5887 177.629 37.2657C177.619 41.027 179.058 44.6425 181.636 47.338C184.215 50.0334 187.728 51.5945 191.424 51.6869C192.859 51.7584 194.289 51.4798 195.597 50.8743C196.904 50.2688 198.05 49.3539 198.94 48.2061V51.0663H209.902V43.6046H206.941L206.943 14.7623ZM192.405 43.9782C190.683 43.9751 189.031 43.2817 187.808 42.0481C186.585 40.8146 185.889 39.1404 185.871 37.3883C185.912 35.6118 186.627 33.9206 187.867 32.6691C189.107 31.4177 190.775 30.7033 192.522 30.6758C194.225 30.6711 195.862 31.3452 197.083 32.5536C198.303 33.7621 199.01 35.4089 199.052 37.1412C199.054 38.9423 198.357 40.6714 197.112 41.9519C195.867 43.2324 194.175 43.9607 192.405 43.9782V43.9782ZM172.447 33.4094C172.54 31.9845 172.373 30.5543 171.953 29.1915C171.192 27.3241 169.887 25.7389 168.213 24.6497C166.539 23.5604 164.577 23.0195 162.592 23.0997C161.124 23.0194 159.663 23.3618 158.377 24.0876C157.092 24.8134 156.033 25.8932 155.323 27.2031V23.7143H144.361V31.1819H147.322V43.7392H144.361V51.1988H158.035V43.7291H155.201V37.5128C155.201 34.6527 155.57 31.1719 160.006 31.1719C162.716 31.1719 164.193 32.5397 164.193 35.7714V51.1868H175.155V43.7291H172.194L172.447 33.4094ZM113.073 31.0474H111.472L111.349 23.5877H124.037V31.0474H121.573L113.935 50.9317H105.563L98.0494 31.0474H95.5857V23.5898H108.396V31.0494H106.917L109.75 40.871L113.073 31.0474ZM126.376 23.7123H137.339V43.7271H140.173V51.1868H126.376V43.7291H129.213V31.1819H126.38L126.376 23.7123ZM231.943 31.5455V23.3487C230.376 23.3302 228.833 23.7346 227.469 24.5207C226.106 25.3068 224.972 26.4465 224.183 27.8237V23.7143H213.963V31.1819H216.924V43.7392H213.963V51.1988H227.76V43.7291H224.927V38.6315C224.927 34.2811 227.391 31.7845 231.947 31.5455H231.943Z" fill="#009985"/>
</svg>
