<?xml version="1.0" encoding="UTF-8"?>
<svg width="168px" height="30px" viewBox="0 0 168 30" version="1.1" xmlns="http://www.w3.org/2000/svg" xmlns:xlink="http://www.w3.org/1999/xlink">
    <!-- Generator: Sketch 62 (91390) - https://sketch.com -->
    <title>Combined Shape</title>
    <desc>Created with Sketch.</desc>
    <g id="Page-1" stroke="none" stroke-width="1" fill="none" fill-rule="evenodd">
        <path d="M14.3,-1.77635684e-15 C17.2,-1.77635684e-15 20.1,0.4 22.9,0.8 L22.9,6.28450623 C22.9,6.29472656 22.9,6.3 22.9,6.3 C20.7,6 18.4,5.7 16.1,5.7 C12.1,5.7 9.4,6.3 9.4,8.2 C9.4,9.8 11,10.4 17,12.4 C20.3,13.5 26.1,15.6 26.1,21 C26.1,26 20.8,30 12.9,30 C8.1,30 5.4,29.3 1.4,28.4 L1.4,22.1 C5.8,23.3 9.5,23.9 12.2,23.9 C14.7,23.9 16.5,22.9 16.5,21.1 C16.5,19.5 13.2,18.6 9.1,17.4 C3.6,15.8 0.5,12.4 0.5,8.4 C0.5,2.4 8.2,-1.77635684e-15 14.3,-1.77635684e-15 Z M124.9,0.2 C127,0.2 129,0.4 131.1,0.6 L131.1,7.4 C129.2,7.2 127.4,6.8 125.4,6.8 C119.1,6.8 116.4,10.2 116.4,14.3 C116.4,19.3 120.2,23.4 126.9,23.4 C128.4,23.4 129.9,23.3 131.4,23 C131.5,23 131.5,29.6 131.5,29.6 C129.5,29.7 127.6,30 125.6,30 C112.9,30 106.3,22 106.3,14.3 C106.3,4.1 114.6,0.2 124.9,0.2 Z M44.7,0.1 C53.6,0.1 62.1,4.5 62.1,15 C62.1,23.2 55.4,29.9 44.7,29.9 C34.5,29.9 27.3,23.4 27.3,15 C27.3,5.7 34.3,0.1 44.7,0.1 Z M150.1,0.1 C159,0.1 167.5,4.5 167.5,15 C167.5,23.2 160.8,29.9 150.1,29.9 C139.8,29.9 132.7,23.4 132.7,15 C132.7,5.7 139.7,0.1 150.1,0.1 Z M87,0.8 L87.6,6.6 C85.5,6.6 83.2,6.4 81.1,6.4 L75.9,6.4 L75.9,12.3 L79.6,12.3 C82.1,12.3 84.6,12.1 87,12.1 L87,18.1 C84.6,18 82,17.9 79.6,17.9 L75.9,17.9 L75.9,21.4 C75.9,24.1 76.1,26.6 76.2,29.3 C76,29.2 65.4,29.2 65.4,29.2 C65.6,26.4 65.7,24 65.7,21.3 L65.7,8.7 C65.7,6.6 65.7,3.9 65.2,0.8 L87,0.8 Z M102.4,0.8 C101.9,3.3 101.9,6.1 101.9,8.7 L101.9,19.3 C101.9,22.6 102.6,25.9 102.9,29.2 L91.5,29.2 C91.7,26.4 91.8,24 91.8,21.3 L91.8,8.7 C91.8,6.6 91.8,3.9 91.3,0.8 L102.4,0.8 Z M44.7,6.7 C39.5,6.7 37.4,10.1 37.4,15 C37.5,19.2 39.9,23.3 44.7,23.3 C50,23.3 52,19 52,15 C52,11 50,6.7 44.7,6.7 Z M150.1,6.7 C144.9,6.7 142.8,10.1 142.8,15 C142.8,19.2 145.2,23.3 150.1,23.3 C155.3,23.3 157.4,19 157.4,15 C157.4,11 155.4,6.7 150.1,6.7 Z" id="Combined-Shape" fill="#00558C" fill-rule="nonzero"></path>
    </g>
</svg>